<svg width="391" height="400" viewBox="0 0 391 400" fill="none" xmlns="http://www.w3.org/2000/svg">
<rect x="74" y="104" width="128" height="128" rx="64" fill="#8ED1E7"/>
<rect x="156" y="13" width="91" height="91" rx="45.5" fill="#8ED1E7"/>
<rect x="74" y="-32" width="45" height="45" rx="22.5" fill="#8ED1E7"/>
<rect y="232" width="45" height="45" rx="22.5" fill="#8ED1E7"/>
<rect x="138" y="116" width="232" height="232" rx="116" fill="#8ED1E7"/>
<path d="M217.224 254.448C213.939 254.448 210.995 253.915 208.392 252.848C205.789 251.781 203.699 250.203 202.12 248.112C200.584 246.021 199.773 243.504 199.688 240.56H211.336C211.507 242.224 212.083 243.504 213.064 244.4C214.045 245.253 215.325 245.68 216.904 245.68C218.525 245.68 219.805 245.317 220.744 244.592C221.683 243.824 222.152 242.779 222.152 241.456C222.152 240.347 221.768 239.429 221 238.704C220.275 237.979 219.357 237.381 218.248 236.912C217.181 236.443 215.645 235.909 213.64 235.312C210.739 234.416 208.371 233.52 206.536 232.624C204.701 231.728 203.123 230.405 201.8 228.656C200.477 226.907 199.816 224.624 199.816 221.808C199.816 217.627 201.331 214.363 204.36 212.016C207.389 209.627 211.336 208.432 216.2 208.432C221.149 208.432 225.139 209.627 228.168 212.016C231.197 214.363 232.819 217.648 233.032 221.872H221.192C221.107 220.421 220.573 219.291 219.592 218.48C218.611 217.627 217.352 217.2 215.816 217.2C214.493 217.2 213.427 217.563 212.616 218.288C211.805 218.971 211.4 219.973 211.4 221.296C211.4 222.747 212.083 223.877 213.448 224.688C214.813 225.499 216.947 226.373 219.848 227.312C222.749 228.293 225.096 229.232 226.888 230.128C228.723 231.024 230.301 232.325 231.624 234.032C232.947 235.739 233.608 237.936 233.608 240.624C233.608 243.184 232.947 245.509 231.624 247.6C230.344 249.691 228.467 251.355 225.992 252.592C223.517 253.829 220.595 254.448 217.224 254.448ZM282.519 209.072L266.583 254H252.887L236.951 209.072H248.599L259.735 242.992L270.935 209.072H282.519ZM316.917 223.28C316.106 221.787 314.933 220.656 313.397 219.888C311.904 219.077 310.133 218.672 308.085 218.672C304.544 218.672 301.706 219.845 299.573 222.192C297.44 224.496 296.373 227.589 296.373 231.472C296.373 235.611 297.482 238.853 299.701 241.2C301.962 243.504 305.056 244.656 308.981 244.656C311.669 244.656 313.93 243.973 315.765 242.608C317.642 241.243 319.008 239.28 319.861 236.72H305.973V228.656H329.781V238.832C328.97 241.563 327.584 244.101 325.621 246.448C323.701 248.795 321.248 250.693 318.261 252.144C315.274 253.595 311.904 254.32 308.149 254.32C303.712 254.32 299.744 253.36 296.245 251.44C292.789 249.477 290.08 246.768 288.117 243.312C286.197 239.856 285.237 235.909 285.237 231.472C285.237 227.035 286.197 223.088 288.117 219.632C290.08 216.133 292.789 213.424 296.245 211.504C299.701 209.541 303.648 208.56 308.085 208.56C313.461 208.56 317.984 209.861 321.653 212.464C325.365 215.067 327.818 218.672 329.013 223.28H316.917ZM349.219 254.576C346.531 254.576 344.12 254.128 341.987 253.232C339.854 252.293 338.168 251.013 336.931 249.392C335.694 247.728 335.011 245.829 334.883 243.696H340.899C341.07 245.445 341.88 246.875 343.331 247.984C344.824 249.093 346.766 249.648 349.155 249.648C351.374 249.648 353.123 249.157 354.403 248.176C355.683 247.195 356.323 245.957 356.323 244.464C356.323 242.928 355.64 241.797 354.275 241.072C352.91 240.304 350.798 239.557 347.939 238.832C345.336 238.149 343.203 237.467 341.539 236.784C339.918 236.059 338.51 235.013 337.315 233.648C336.163 232.24 335.587 230.405 335.587 228.144C335.587 226.352 336.12 224.709 337.187 223.216C338.254 221.723 339.768 220.549 341.731 219.696C343.694 218.8 345.934 218.352 348.451 218.352C352.334 218.352 355.47 219.333 357.859 221.296C360.248 223.259 361.528 225.947 361.699 229.36H355.875C355.747 227.525 355 226.053 353.635 224.944C352.312 223.835 350.52 223.28 348.259 223.28C346.168 223.28 344.504 223.728 343.267 224.624C342.03 225.52 341.411 226.693 341.411 228.144C341.411 229.296 341.774 230.256 342.499 231.024C343.267 231.749 344.206 232.347 345.315 232.816C346.467 233.243 348.046 233.733 350.051 234.288C352.568 234.971 354.616 235.653 356.195 236.336C357.774 236.976 359.118 237.957 360.227 239.28C361.379 240.603 361.976 242.331 362.019 244.464C362.019 246.384 361.486 248.112 360.419 249.648C359.352 251.184 357.838 252.4 355.875 253.296C353.955 254.149 351.736 254.576 349.219 254.576Z" fill="white"/>
<rect x="315" y="304" width="128" height="128" rx="64" fill="#8ED1E7"/>
</svg>
